#N canvas 534 38 1194 781 10;
#X obj 868 197 metro 20;
#X obj 817 159 tgl 15 0 empty empty empty 17 7 0 10 #fcfcfc #000000
#000000 0 1;
#X floatatom 913 170 5 0 0 0 - - - 0;
#X obj 614 274 hsl 128 15 0 1 0 0 empty empty empty -2 -8 0 10 #fcfcfc
#000000 #000000 0 1;
#X obj 649 298 hsl 128 15 0 0.5 0 0 empty empty empty -2 -8 0 10 #fcfcfc
#000000 #000000 0 1;
#X floatatom 616 359 5 0 0 0 - - - 0;
#X obj 935 579 hsl 128 15 0 30 0 0 empty empty empty -2 -8 0 10 #fcfcfc
#000000 #000000 0 1;
#X obj 970 603 hsl 128 15 0 15 0 0 empty empty empty -2 -8 0 10 #fcfcfc
#000000 #000000 0 1;
#X floatatom 838 517 5 0 0 0 - - - 0;
#X obj 760 432 hsl 128 15 0 1 0 0 empty empty empty -2 -8 0 10 #fcfcfc
#000000 #000000 0 1;
#X obj 795 456 hsl 128 15 0 10 0 0 empty empty empty -2 -8 0 10 #fcfcfc
#000000 #000000 0 1;
#X floatatom 723 518 5 0 0 0 - - - 0;
#X obj 465 84 hsl 128 15 5 1000 0 0 empty empty empty -2 -8 0 10 #fcfcfc
#000000 #000000 0 1;
#X obj 477 135 hsl 128 15 0 200 0 0 empty empty empty -2 -8 0 10 #fcfcfc
#000000 #000000 0 1;
#X floatatom 421 180 5 0 0 0 - - - 0;
#X text 784 298 length range;
#X text 1106 602 speed range;
#X text 931 455 start range;
#X obj 869 226 t b b b b b;
#X obj 210 337 bng 15 250 50 0 empty empty empty 17 7 0 10 #fcfcfc
#000000 #000000;
#X text 195 317 trigger;
#X obj 151 787 line~;
#X obj 355 739 cos~;
#X obj 355 760 *~ -1;
#X obj 355 781 +~ 1;
#X obj 355 801 /~ 2;
#X obj 354 718 line~;
#X msg 354 661 1;
#X obj 354 684 pack 0 0;
#X msg 422 695 0;
#X text 332 645 apply volume envelope;
#X obj 405 553 bng 15 250 50 0 empty empty empty 17 7 0 10 #fcfcfc
#000000 #000000;
#X obj 254 853 *~;
#X obj 150 663 pack 0 0;
#X obj 393 389 *;
#X obj 408 368 r maxLength;
#X obj 76 462 *;
#X obj 86 437 r maxDel;
#X obj 56 483 f;
#X obj 56 394 bng 15 250 50 0 empty empty empty 17 7 0 10 #fcfcfc #000000
#000000;
#X obj 316 402 bng 15 250 50 0 empty empty empty 17 7 0 10 #fcfcfc
#000000 #000000;
#X text 834 622 speed;
#X obj 799 641 swap 1;
#X floatatom 798 620 5 0 0 0 - - - 0;
#X floatatom 56 505 15 0 0 0 - - - 0;
#X obj 378 411 f;
#X obj 631 582 *;
#X obj 643 558 t b f;
#X obj 805 665 -;
#X obj 608 624 +;
#X obj 631 603 t b f;
#X obj 260 538 f;
#N canvas 331 38 671 472 octaveLocker 0;
#X obj 105 68 inlet;
#X text 103 47 on/off;
#X obj 214 73 inlet;
#X text 214 54 num in;
#X obj 214 186 moses 0.125;
#X floatatom 328 384 5 0 0 0 - - - 0;
#X obj 277 208 moses 0.25;
#X obj 334 230 moses 0.5;
#X msg 334 253 0.5;
#X obj 385 251 moses 1;
#X obj 424 272 moses 2;
#X obj 463 294 moses 4;
#X obj 502 315 moses 8;
#X obj 541 336 moses 16;
#X obj 135 333 *;
#X obj 150 306 tgl 15 0 empty empty empty 17 7 0 10 #fcfcfc #000000
#000000 0 1;
#X obj 188 381 *;
#X obj 204 327 swap 1;
#X obj 203 358 -;
#X floatatom 153 408 5 0 0 0 - - - 0;
#X obj 153 384 +;
#X obj 151 358 t b f;
#X obj 174 432 outlet;
#X floatatom 254 140 5 0 0 0 - - - 0;
#X obj 246 97 swap 1;
#X obj 254 120 -;
#X msg 206 221 0.875;
#X msg 277 231 0.75;
#X msg 424 295 -1;
#X msg 463 317 -3;
#X msg 502 338 -7;
#X msg 541 359 -15;
#X msg 586 358 -31;
#X msg 385 274 0;
#X connect 0 0 15 0;
#X connect 2 0 24 0;
#X connect 2 0 16 0;
#X connect 4 0 26 0;
#X connect 4 1 6 0;
#X connect 5 0 14 0;
#X connect 6 0 27 0;
#X connect 6 1 7 0;
#X connect 7 0 8 0;
#X connect 7 1 9 0;
#X connect 8 0 5 0;
#X connect 9 0 33 0;
#X connect 9 1 10 0;
#X connect 10 0 28 0;
#X connect 10 1 11 0;
#X connect 11 0 29 0;
#X connect 11 1 12 0;
#X connect 12 0 30 0;
#X connect 12 1 13 0;
#X connect 13 0 31 0;
#X connect 13 1 32 0;
#X connect 14 0 20 0;
#X connect 15 0 14 1;
#X connect 15 0 17 0;
#X connect 16 0 21 0;
#X connect 17 0 18 0;
#X connect 17 1 18 1;
#X connect 18 0 16 1;
#X connect 19 0 22 0;
#X connect 20 0 19 0;
#X connect 21 0 20 0;
#X connect 21 1 20 1;
#X connect 23 0 4 0;
#X connect 24 0 25 0;
#X connect 24 1 25 1;
#X connect 25 0 23 0;
#X connect 26 0 5 0;
#X connect 27 0 5 0;
#X connect 28 0 5 0;
#X connect 29 0 5 0;
#X connect 30 0 5 0;
#X connect 31 0 5 0;
#X connect 32 0 5 0;
#X connect 33 0 5 0;
#X restore 728 707 pd octaveLocker;
#X floatatom 344 454 5 0 0 0 - - - 0;
#X obj 344 432 min;
#X text 84 420 start time;
#X obj 429 898 *~;
#X obj 335 898 *~;
#X obj 500 834 bng 15 250 50 0 empty empty empty 17 7 0 10 #fcfcfc
#000000 #000000;
#X obj 210 357 t b b b;
#X floatatom 805 687 5 0 0 0 - - - 0;
#X floatatom 728 729 5 0 0 0 - - - 0;
#N canvas 411 449 471 321 myPanner 0;
#N canvas 737 142 450 300 meanNrange 0;
#X obj 181 117 random 1000;
#X obj 181 138 / 1000;
#X floatatom 181 220 5 0 0 0 - - - 0;
#X obj 181 93 inlet;
#X text 180 72 bang;
#X obj 181 162 * 1;
#X text 204 163 range;
#X obj 181 188 + 0;
#X text 207 191 mean;
#X obj 281 95 inlet;
#X text 283 74 mean;
#X obj 332 95 inlet;
#X text 330 75 range;
#X obj 181 244 outlet;
#X connect 0 0 1 0;
#X connect 1 0 5 0;
#X connect 2 0 13 0;
#X connect 3 0 0 0;
#X connect 5 0 7 0;
#X connect 7 0 2 0;
#X connect 9 0 7 1;
#X connect 11 0 5 1;
#X restore -637 158 pd meanNrange;
#X floatatom -637 180 5 0 0 0 - - - 0;
#X obj -637 136 bng 15 250 50 0 empty empty empty 17 7 0 10 #fcfcfc
#000000 #000000;
#X obj -600 109 loadbang;
#X obj -527 94 hsl 128 15 0 1 0 0 empty empty empty -2 -8 0 10 #fcfcfc
#000000 #000000 0 1;
#X msg -600 136 0;
#X floatatom -530 114 5 0 0 0 - - - 0;
#X obj -522 133 bng 15 250 50 0 empty empty empty 17 7 0 10 #fcfcfc
#000000 #000000;
#X floatatom -522 171 5 0 0 0 - - - 0;
#X obj -522 151 random 2;
#X obj -522 189 * 2;
#X obj -522 210 - 1;
#X floatatom -522 232 5 0 0 0 - - - 0;
#X obj -594 207 *;
#X obj -637 108 t b b;
#X floatatom -594 229 5 0 0 0 - - - 0;
#X obj -751 100 + 1;
#X obj -751 120 / 2;
#X floatatom -751 142 5 0 0 0 - - - 0;
#X obj -818 98 swap 1;
#X obj -807 119 -;
#X floatatom -807 141 5 0 0 0 - - - 0;
#X obj -637 48 inlet;
#X obj -530 51 inlet;
#X obj -751 167 outlet;
#X obj -807 167 outlet;
#X connect 0 0 1 0;
#X connect 1 0 13 0;
#X connect 2 0 0 0;
#X connect 3 0 5 0;
#X connect 4 0 0 2;
#X connect 4 0 6 0;
#X connect 5 0 0 1;
#X connect 7 0 9 0;
#X connect 8 0 10 0;
#X connect 9 0 8 0;
#X connect 10 0 11 0;
#X connect 11 0 12 0;
#X connect 12 0 13 1;
#X connect 13 0 15 0;
#X connect 14 0 2 0;
#X connect 14 1 7 0;
#X connect 15 0 16 0;
#X connect 16 0 17 0;
#X connect 17 0 18 0;
#X connect 18 0 19 0;
#X connect 18 0 24 0;
#X connect 19 0 20 0;
#X connect 19 1 20 1;
#X connect 20 0 21 0;
#X connect 21 0 25 0;
#X connect 22 0 14 0;
#X connect 23 0 4 0;
#X restore 500 856 pd myPanner;
#X obj 151 820 vd~ tape1;
#X obj 566 833 hsl 128 15 0 1 0 0 empty empty empty -2 -8 0 10 #fcfcfc
#000000 #000000 0 1;
#X text 704 835 pan;
#X floatatom 607 652 15 0 0 0 - - - 0;
#X obj 723 498 min 1;
#X msg 728 664 0;
#X obj 728 688 tgl 15 0 empty empty empty 17 7 0 10 #fcfcfc #000000
#000000 0 1;
#N canvas 737 142 450 300 minNrange 0;
#X obj 181 117 random 1000;
#X obj 181 138 / 1000;
#X floatatom 181 220 5 0 0 0 - - - 0;
#X obj 181 93 inlet;
#X text 180 72 bang;
#X obj 181 162 * 1;
#X text 204 163 range;
#X obj 181 188 + 0;
#X text 207 191 mean;
#X obj 281 95 inlet;
#X text 283 74 mean;
#X obj 332 95 inlet;
#X text 330 75 range;
#X obj 181 244 outlet;
#X connect 0 0 1 0;
#X connect 1 0 5 0;
#X connect 2 0 13 0;
#X connect 3 0 0 0;
#X connect 5 0 7 0;
#X connect 7 0 2 0;
#X connect 9 0 7 1;
#X connect 11 0 5 1;
#X restore 421 158 pd minNrange;
#N canvas 737 142 450 300 minNrange 0;
#X obj 181 117 random 1000;
#X obj 181 138 / 1000;
#X floatatom 181 220 5 0 0 0 - - - 0;
#X obj 181 93 inlet;
#X text 180 72 bang;
#X obj 181 162 * 1;
#X text 204 163 range;
#X obj 181 188 + 0;
#X text 207 191 mean;
#X obj 281 95 inlet;
#X text 283 74 mean;
#X obj 332 95 inlet;
#X text 330 75 range;
#X obj 181 244 outlet;
#X connect 0 0 1 0;
#X connect 1 0 5 0;
#X connect 2 0 13 0;
#X connect 3 0 0 0;
#X connect 5 0 7 0;
#X connect 7 0 2 0;
#X connect 9 0 7 1;
#X connect 11 0 5 1;
#X restore 596 327 pd minNrange;
#N canvas 737 142 450 300 minNrange 0;
#X obj 181 117 random 1000;
#X obj 181 138 / 1000;
#X floatatom 181 220 5 0 0 0 - - - 0;
#X obj 181 93 inlet;
#X text 180 72 bang;
#X obj 181 162 * 1;
#X text 204 163 range;
#X obj 181 188 + 0;
#X text 207 191 mean;
#X obj 281 95 inlet;
#X text 283 74 mean;
#X obj 332 95 inlet;
#X text 330 75 range;
#X obj 181 244 outlet;
#X connect 0 0 1 0;
#X connect 1 0 5 0;
#X connect 2 0 13 0;
#X connect 3 0 0 0;
#X connect 5 0 7 0;
#X connect 7 0 2 0;
#X connect 9 0 7 1;
#X connect 11 0 5 1;
#X restore 898 625 pd minNrange;
#N canvas 737 142 450 300 minNrange 0;
#X obj 181 117 random 1000;
#X obj 181 138 / 1000;
#X floatatom 181 220 5 0 0 0 - - - 0;
#X obj 181 93 inlet;
#X text 180 72 bang;
#X obj 181 162 * 1;
#X text 204 163 range;
#X obj 181 188 + 0;
#X text 207 191 mean;
#X obj 281 95 inlet;
#X text 283 74 mean;
#X obj 332 95 inlet;
#X text 330 75 range;
#X obj 181 244 outlet;
#X connect 0 0 1 0;
#X connect 1 0 5 0;
#X connect 2 0 13 0;
#X connect 3 0 0 0;
#X connect 5 0 7 0;
#X connect 7 0 2 0;
#X connect 9 0 7 1;
#X connect 11 0 5 1;
#X restore 723 478 pd minNrange;
#X obj 735 827 hsl 128 15 0 1 0 0 empty empty empty -2 -8 0 10 #fcfcfc
#000000 #000000 0 1;
#X obj 770 851 hsl 128 15 0 1 0 0 empty empty empty -2 -8 0 10 #fcfcfc
#000000 #000000 0 1;
#X floatatom 698 913 5 0 0 0 - - - 0;
#X obj 698 893 min 1;
#N canvas 737 142 450 300 minNrange 0;
#X obj 181 117 random 1000;
#X obj 181 138 / 1000;
#X floatatom 181 220 5 0 0 0 - - - 0;
#X obj 181 93 inlet;
#X text 180 72 bang;
#X obj 181 162 * 1;
#X text 204 163 range;
#X obj 181 188 + 0;
#X text 207 191 mean;
#X obj 281 95 inlet;
#X text 283 74 mean;
#X obj 332 95 inlet;
#X text 330 75 range;
#X obj 181 244 outlet;
#X connect 0 0 1 0;
#X connect 1 0 5 0;
#X connect 2 0 13 0;
#X connect 3 0 0 0;
#X connect 5 0 7 0;
#X connect 7 0 2 0;
#X connect 9 0 7 1;
#X connect 11 0 5 1;
#X restore 698 873 pd minNrange;
#X text 872 826 volume min;
#X text 906 850 volume range;
#X text 897 431 start min;
#X text 1072 576 speed min;
#X text 747 274 length min;
#X obj 254 875 *~ 1;
#X text 785 174 start here!;
#X text 597 84 firing rate min;
#X text 610 134 firing rate range;
#X obj 335 921 outlet~;
#X obj 429 921 outlet~;
#X obj 460 47 inlet;
#X obj 519 46 inlet;
#X obj 689 229 inlet;
#X obj 734 228 inlet;
#X obj 948 550 inlet;
#X obj 993 549 inlet;
#X obj 757 393 inlet;
#X obj 802 392 inlet;
#X text 440 27 time mean;
#X text 502 25 time range;
#X text 654 207 length mean;
#X text 729 206 length range;
#X text 926 528 speed mean;
#X text 1001 529 speed range;
#X text 719 371 start mean;
#X text 792 369 start range;
#X obj 59 26 inlet;
#X text 33 55 start grain;
#X obj 728 779 inlet;
#X obj 773 778 inlet;
#X text 690 757 volume mean;
#X text 763 755 volume range;
#X obj 565 799 inlet;
#X text 560 781 paning;
#X obj 209 117 delay 100;
#X obj 116 108 moses 0.5;
#X obj 167 78 t f b;
#X msg 209 138 1;
#X obj 209 93 bng 15 250 50 0 empty empty empty 17 7 0 10 #fcfcfc #000000
#000000;
#X obj 290 112 -;
#X obj 728 637 loadbang;
#X obj 719 602 inlet;
#X text 703 582 octave lock;
#X text 96 489 start;
#X text 646 629 end;
#X text 396 345 length in millisecs;
#X text 369 434 length in ms;
#X obj 57 621 max;
#X obj 72 542 -;
#X floatatom 72 569 8 0 0 0 - - - 0;
#X floatatom 57 644 8 0 0 0 - - - 0;
#X obj 150 594 moses 0;
#X msg 150 622 0;
#X obj 212 390 t b b;
#X obj 72 591 t b f;
#X listbox 173 697 20 0 0 0 - - - 0;
#X connect 0 0 18 0;
#X connect 1 0 0 0;
#X connect 2 0 0 1;
#X connect 2 0 54 0;
#X connect 3 0 71 1;
#X connect 4 0 71 2;
#X connect 5 0 34 0;
#X connect 6 0 72 1;
#X connect 7 0 72 2;
#X connect 8 0 43 0;
#X connect 9 0 73 1;
#X connect 10 0 73 2;
#X connect 11 0 36 0;
#X connect 12 0 70 1;
#X connect 12 0 119 0;
#X connect 13 0 70 2;
#X connect 14 0 2 0;
#X connect 14 0 119 1;
#X connect 18 0 19 0;
#X connect 18 1 73 0;
#X connect 18 2 72 0;
#X connect 18 3 71 0;
#X connect 18 4 70 0;
#X connect 19 0 59 0;
#X connect 21 0 63 0;
#X connect 22 0 23 0;
#X connect 23 0 24 0;
#X connect 24 0 25 0;
#X connect 25 0 32 1;
#X connect 26 0 22 0;
#X connect 27 0 28 0;
#X connect 28 0 26 0;
#X connect 29 0 26 0;
#X connect 31 0 29 0;
#X connect 31 0 58 0;
#X connect 32 0 84 0;
#X connect 33 0 21 0;
#X connect 33 0 27 0;
#X connect 33 0 135 0;
#X connect 34 0 45 1;
#X connect 35 0 34 1;
#X connect 36 0 38 1;
#X connect 37 0 36 1;
#X connect 38 0 44 0;
#X connect 39 0 38 0;
#X connect 40 0 51 0;
#X connect 42 0 48 0;
#X connect 42 1 48 1;
#X connect 43 0 42 0;
#X connect 44 0 49 0;
#X connect 44 0 127 0;
#X connect 44 0 128 0;
#X connect 45 0 54 1;
#X connect 46 0 50 0;
#X connect 47 0 46 0;
#X connect 47 1 46 1;
#X connect 48 0 60 0;
#X connect 49 0 51 1;
#X connect 49 0 66 0;
#X connect 50 0 49 0;
#X connect 50 1 49 1;
#X connect 51 0 131 0;
#X connect 52 0 61 0;
#X connect 53 0 28 1;
#X connect 53 0 33 1;
#X connect 53 0 46 0;
#X connect 54 0 53 0;
#X connect 56 0 89 0;
#X connect 57 0 88 0;
#X connect 58 0 62 0;
#X connect 59 0 40 0;
#X connect 59 1 133 0;
#X connect 59 2 31 0;
#X connect 60 0 52 1;
#X connect 61 0 47 0;
#X connect 62 0 57 1;
#X connect 62 1 56 1;
#X connect 63 0 32 0;
#X connect 64 0 62 1;
#X connect 66 0 128 1;
#X connect 67 0 11 0;
#X connect 68 0 69 0;
#X connect 69 0 52 0;
#X connect 70 0 14 0;
#X connect 71 0 5 0;
#X connect 72 0 8 0;
#X connect 73 0 67 0;
#X connect 74 0 78 1;
#X connect 75 0 78 2;
#X connect 76 0 84 1;
#X connect 77 0 76 0;
#X connect 78 0 77 0;
#X connect 84 0 57 0;
#X connect 84 0 56 0;
#X connect 90 0 12 0;
#X connect 91 0 13 0;
#X connect 92 0 3 0;
#X connect 93 0 4 0;
#X connect 94 0 6 0;
#X connect 95 0 7 0;
#X connect 96 0 9 0;
#X connect 97 0 10 0;
#X connect 106 0 116 0;
#X connect 108 0 74 0;
#X connect 109 0 75 0;
#X connect 112 0 64 0;
#X connect 114 0 117 0;
#X connect 115 0 1 0;
#X connect 115 1 118 0;
#X connect 116 0 115 0;
#X connect 116 1 70 0;
#X connect 117 0 1 0;
#X connect 118 0 114 0;
#X connect 119 0 114 1;
#X connect 120 0 68 0;
#X connect 121 0 69 0;
#X connect 127 0 130 0;
#X connect 128 0 129 0;
#X connect 129 0 134 0;
#X connect 130 0 21 0;
#X connect 131 0 132 0;
#X connect 131 1 33 0;
#X connect 132 0 33 0;
#X connect 133 0 39 0;
#X connect 133 1 45 0;
#X connect 134 0 127 0;
#X connect 134 1 127 1;
