#N canvas 997 75 709 629 12;
#X obj 153 40 bng 15 250 50 0 \$0-load empty load -35 8 0 13 #fcfcfc #000000 #000000;
#X obj 197 37 bng 20 250 50 0 \$0-start empty start 25 11 0 15 #c6ffc7 #404040 #000000;
#X obj 271 38 bng 20 250 50 0 \$0-stop empty stop 25 11 0 15 #ffc7c6 #000000 #000000;
#X obj 450 247 dac~ 1 2;
#X obj 361 46 hradio 23 1 0 7 \$0-slice \$0-sliceinit #\ of\ slices: 0 -8 0 10 #fcfcfc #000000 #000000 0;
#X text 366 48 1;
#X text 390 48 2;
#X text 412 48 4;
#X text 436 49 8;
#X text 455 49 16;
#X text 479 49 32;
#X obj 31 267 hsl 200 30 0 100 0 0 \$0-pitchprob empty pitch\ probability -2 -8 0 10 #ffffff #000000 #000000 0 1;
#X obj 31 314 hsl 200 30 100 -100 0 0 \$0-pitchamount \$0-pitchreset pitch\ amount -2 -8 0 10 #ffffff #000000 #000000 0 1;
#N canvas 1065 157 624 743 guts 0;
#X floatatom 11 43 5 0 0 0 - - - 0;
#X obj 11 67 t b b b f f f;
#X obj 12 90 r \$0-samples;
#X floatatom 12 114 12 0 0 0 - - - 0;
#X obj 11 17 r \$0-bang;
#X obj 12 193 * 1;
#X floatatom 116 236 7 0 0 0 - - - 0;
#X obj 57 217 +;
#X obj 12 369 pack f f f;
#X msg 12 393 \$1 \, \$2 \$3;
#X obj 12 417 line~;
#X obj 116 672 outlet~, f 10;
#X obj 12 140 / 16;
#X floatatom 200 322 6 0 0 1 length - - 0;
#X floatatom 12 322 8 0 0 1 start - - 0;
#X floatatom 112 322 8 0 0 1 end - - 0;
#X obj 12 166 t f f;
#X obj 12 217 t f f;
#X obj 12 242 t b f f;
#X obj 72 241 t f f;
#N canvas 1132 141 468 569 direction 0;
#X obj 108 50 r \$0-reverseprob;
#X obj 108 74 i;
#X floatatom 108 98 5 0 0 0 - - - 0;
#X obj 24 157 <;
#X obj 23 82 r \$0-bang;
#X obj 23 106 random 100;
#X floatatom 23 130 5 0 0 0 - - - 0;
#X floatatom 24 181 5 0 0 0 - - - 0;
#X obj 25 207 sel 0 1;
#X obj 245 179 pack;
#X obj 282 257 unpack;
#X obj 25 241 bng 15 250 50 0 empty empty empty 17 7 0 10 #fcfcfc #000000 #000000;
#X obj 57 242 bng 15 250 50 0 empty empty empty 17 7 0 10 #fcfcfc #000000 #000000;
#X obj 245 155 f;
#X obj 328 176 pack;
#X obj 205 203 list store;
#X obj 286 204 list store;
#X obj 177 14 inlet;
#X obj 237 13 inlet;
#X obj 287 14 inlet;
#X obj 336 13 inlet;
#X obj 381 13 inlet;
#X obj 258 298 outlet;
#X obj 318 300 outlet;
#X obj 106 140 r fromGUI;
#X obj 106 164 list trim;
#X obj 106 188 route /reverseprob;
#X obj 106 212 * 100;
#X obj 106 236 i;
#X floatatom 106 260 5 0 0 0 - - - 0;
#X obj 56 422 s toGUI;
#X obj 90 370 delay 100;
#X msg 56 345 list /revbang 0 0 1;
#X msg 89 393 list /revbang 0 0 0;
#X connect 0 0 1 0;
#X connect 1 0 2 0;
#X connect 2 0 3 1;
#X connect 3 0 7 0;
#X connect 4 0 5 0;
#X connect 5 0 6 0;
#X connect 6 0 3 0;
#X connect 7 0 8 0;
#X connect 8 0 11 0;
#X connect 8 0 16 0;
#X connect 8 1 12 0;
#X connect 8 1 15 0;
#X connect 9 0 15 1;
#X connect 10 0 22 0;
#X connect 10 1 23 0;
#X connect 12 0 32 0;
#X connect 12 0 31 0;
#X connect 13 0 9 0;
#X connect 14 0 16 1;
#X connect 15 0 10 0;
#X connect 16 0 10 0;
#X connect 17 0 13 0;
#X connect 18 0 9 1;
#X connect 19 0 14 0;
#X connect 20 0 13 1;
#X connect 21 0 14 1;
#X connect 24 0 25 0;
#X connect 25 0 26 0;
#X connect 26 0 27 0;
#X connect 27 0 28 0;
#X connect 28 0 29 0;
#X connect 28 0 3 1;
#X connect 31 0 33 0;
#X connect 32 0 30 0;
#X connect 33 0 30 0;
#X restore 12 270 pd direction;
#X f 29;
#N canvas 887 280 835 315 skip 0;
#X floatatom 5 99 5 0 0 0 - - - 0;
#X obj 5 69 random 16;
#X obj 340 42 r \$0-skipprob;
#X obj 340 66 i;
#X floatatom 340 90 5 0 0 0 - - - 0;
#X floatatom 155 145 5 0 0 0 - - - 0;
#X obj 155 115 % 16;
#X obj 138 43 int 1;
#X obj 183 43 + 1;
#X floatatom 138 69 5 0 0 0 - - - 0;
#X obj 139 19 r \$0-bang;
#X obj 260 101 <;
#X obj 260 43 random 100;
#X floatatom 260 67 5 0 0 0 - - - 0;
#X floatatom 260 125 5 0 0 0 - - - 0;
#X obj 260 149 sel 0 1;
#X obj 93 180 f;
#X obj 163 182 f;
#X obj 119 216 outlet;
#X obj 5 41 inlet;
#X obj 58 41 inlet;
#X obj 189 87 inlet;
#X obj 259 172 bng 15 250 50 0 empty empty empty 17 7 0 10 #fcfcfc #000000 #000000;
#X obj 283 173 bng 15 250 50 0 empty empty empty 17 7 0 10 #fcfcfc #000000 #000000;
#X obj 350 119 r \$0-stop;
#X obj 350 183 t b b;
#X msg 370 209 0;
#X obj 497 52 r fromGUI;
#X obj 497 76 list trim;
#X obj 497 124 * 100;
#X obj 497 148 i;
#X floatatom 497 172 5 0 0 0 - - - 0;
#X obj 497 100 route /skipprob;
#X obj 264 318 s toGUI;
#X obj 298 266 delay 100;
#X msg 264 241 list /skipbang 0 0 1;
#X msg 297 289 list /skipbang 0 0 0;
#X connect 0 0 16 1;
#X connect 1 0 0 0;
#X connect 2 0 3 0;
#X connect 3 0 4 0;
#X connect 4 0 11 1;
#X connect 5 0 17 1;
#X connect 6 0 5 0;
#X connect 7 0 8 0;
#X connect 7 0 9 0;
#X connect 8 0 7 1;
#X connect 9 0 6 0;
#X connect 10 0 7 0;
#X connect 10 0 12 0;
#X connect 11 0 14 0;
#X connect 12 0 13 0;
#X connect 13 0 11 0;
#X connect 14 0 15 0;
#X connect 15 0 17 0;
#X connect 15 0 22 0;
#X connect 15 1 16 0;
#X connect 15 1 23 0;
#X connect 16 0 18 0;
#X connect 17 0 18 0;
#X connect 19 0 1 0;
#X connect 20 0 1 1;
#X connect 21 0 6 1;
#X connect 23 0 35 0;
#X connect 23 0 34 0;
#X connect 24 0 25 0;
#X connect 25 0 7 0;
#X connect 25 1 26 0;
#X connect 26 0 7 1;
#X connect 27 0 28 0;
#X connect 28 0 32 0;
#X connect 29 0 30 0;
#X connect 30 0 31 0;
#X connect 30 0 11 1;
#X connect 32 0 29 0;
#X connect 34 0 36 0;
#X connect 35 0 33 0;
#X connect 36 0 33 0;
#X restore 77 174 pd skip;
#X f 8;
#N canvas 997 86 640 707 sliceselector 0;
#X floatatom 8 40 5 0 0 0 - - - 0;
#X msg 9 63 \$1;
#X obj 9 87 spigot;
#X floatatom 9 111 5 0 0 0 - - - 0;
#X msg 181 311 4;
#X obj 131 11 r \$0-bang;
#X obj 131 35 bng 15 250 50 0 empty empty empty 17 7 0 10 #fcfcfc #000000 #000000;
#X obj 168 64 delay 10;
#X msg 125 64 1;
#X msg 166 90 0;
#X msg 112 311 1;
#X msg 146 311 2;
#X msg 215 311 8;
#X msg 250 311 16;
#X msg 284 311 32;
#X obj 9 135 sel 0 1 2 3 4 5 6, f 20;
#N canvas 1275 38 453 241 rand 0;
#X floatatom 166 113 5 0 0 0 - - - 0;
#X obj 210 112 + 1;
#X obj 166 71 spigot;
#X msg 296 38 1;
#X msg 240 49 0;
#X obj 148 51 r \$0-bang;
#X obj 138 160 sel 0 1 2 3 4 5 6 7 8;
#X obj 164 91 random 7;
#X obj 83 9 inlet;
#X obj 126 10 inlet;
#X obj 172 9 inlet;
#X obj 215 9 inlet;
#X obj 262 10 inlet;
#X obj 306 10 inlet;
#X obj 19 196 outlet;
#X obj 71 196 outlet;
#X obj 123 196 outlet;
#X obj 175 196 outlet;
#X obj 229 196 outlet;
#X obj 283 196 outlet;
#X obj 337 196 outlet;
#X obj 390 196 outlet;
#X obj 357 11 inlet;
#X connect 0 0 1 0;
#X connect 1 0 6 0;
#X connect 2 0 7 0;
#X connect 3 0 2 1;
#X connect 4 0 2 1;
#X connect 5 0 2 0;
#X connect 6 0 14 0;
#X connect 6 1 15 0;
#X connect 6 2 16 0;
#X connect 6 3 17 0;
#X connect 6 4 18 0;
#X connect 6 5 19 0;
#X connect 6 6 20 0;
#X connect 6 7 21 0;
#X connect 7 0 0 0;
#X connect 8 0 4 0;
#X connect 9 0 4 0;
#X connect 10 0 4 0;
#X connect 11 0 4 0;
#X connect 12 0 4 0;
#X connect 13 0 4 0;
#X connect 22 0 3 0;
#X restore 252 210 pd rand;
#X f 17;
#X obj 184 362 outlet;
#X obj 269 52 loadbang;
#X msg 269 76 3;
#X text 21 392 Adapted from:;
#X text 21 414 Cold \, Mr. (2009) Random beat slicer \, PURE DATA forum~. Available at: http://forum.pdpatchrepo.info/topic/2796/random-beat-slicer (Accessed: 25 October 2022).;
#X obj 433 20 r fromGUI;
#X obj 433 44 list trim;
#X obj 433 68 route /numslice;
#X connect 0 0 1 0;
#X connect 1 0 2 0;
#X connect 2 0 3 0;
#X connect 3 0 15 0;
#X connect 4 0 17 0;
#X connect 5 0 6 0;
#X connect 6 0 7 0;
#X connect 6 0 8 0;
#X connect 6 0 0 0;
#X connect 7 0 9 0;
#X connect 8 0 2 1;
#X connect 9 0 2 1;
#X connect 10 0 17 0;
#X connect 11 0 17 0;
#X connect 12 0 17 0;
#X connect 13 0 17 0;
#X connect 14 0 17 0;
#X connect 15 0 10 0;
#X connect 15 0 16 0;
#X connect 15 1 11 0;
#X connect 15 1 16 1;
#X connect 15 2 4 0;
#X connect 15 2 16 2;
#X connect 15 3 12 0;
#X connect 15 3 16 3;
#X connect 15 4 13 0;
#X connect 15 4 16 4;
#X connect 15 5 14 0;
#X connect 15 5 16 5;
#X connect 15 6 16 6;
#X connect 16 0 10 0;
#X connect 16 1 11 0;
#X connect 16 2 4 0;
#X connect 16 3 12 0;
#X connect 16 4 13 0;
#X connect 16 5 14 0;
#X connect 16 6 13 0;
#X connect 16 7 12 0;
#X connect 18 0 19 0;
#X connect 19 0 0 0;
#X connect 22 0 23 0;
#X connect 23 0 24 0;
#X connect 24 0 0 0;
#X restore 81 19 pd sliceselector;
#X text 140 175 randomises playback position;
#X text 222 270 playback dir.;
#X text 201 21 initial sample slicing;
#N canvas 586 186 548 531 mute 0;
#X obj 102 10 r \$0-muteprob;
#X obj 102 34 i;
#X floatatom 102 58 5 0 0 0 - - - 0;
#X obj 22 80 <;
#X obj 22 10 r \$0-bang;
#X obj 22 34 random 100;
#X floatatom 22 58 5 0 0 0 - - - 0;
#X floatatom 22 104 5 0 0 0 - - - 0;
#X obj 22 128 tgl 30 0 empty empty empty 17 7 0 10 #fcfcfc #000000 #000000 0 1;
#X obj 22 164 == 0;
#X obj 41 237 inlet~;
#X obj 23 260 *~;
#X obj 18 296 outlet~;
#X obj 22 188 sig~;
#X floatatom 87 159 5 0 0 0 - - - 0;
#X obj 87 182 sel 0;
#X obj 87 206 bng 15 250 50 0 empty empty empty 17 7 0 10 #fcfcfc #000000 #000000;
#X obj 119 207 bng 15 250 50 0 empty empty empty 17 7 0 10 #fcfcfc #000000 #000000;
#X text 75 81 Farnell \, 2010 Designing Sound page 221 (mute button & smooth fades);
#X obj 86 296 outlet~;
#X obj 22 212 lop~ 2;
#X obj 219 143 r fromGUI;
#X obj 219 167 list trim;
#X obj 219 215 * 100;
#X obj 219 239 i;
#X floatatom 219 263 5 0 0 0 - - - 0;
#X obj 219 191 route /muteprob;
#X obj 176 404 s toGUI;
#X msg 176 327 list /mutebang 0 0 1;
#X msg 209 375 list /mutebang 0 0 0;
#X obj 210 352 delay 300;
#X connect 0 0 1 0;
#X connect 1 0 2 0;
#X connect 2 0 3 1;
#X connect 3 0 7 0;
#X connect 4 0 5 0;
#X connect 5 0 6 0;
#X connect 6 0 3 0;
#X connect 7 0 8 0;
#X connect 8 0 9 0;
#X connect 8 0 14 0;
#X connect 9 0 13 0;
#X connect 10 0 11 1;
#X connect 11 0 12 0;
#X connect 11 0 19 0;
#X connect 13 0 20 0;
#X connect 14 0 15 0;
#X connect 15 0 16 0;
#X connect 15 1 17 0;
#X connect 17 0 28 0;
#X connect 17 0 30 0;
#X connect 20 0 11 0;
#X connect 21 0 22 0;
#X connect 22 0 26 0;
#X connect 23 0 24 0;
#X connect 24 0 25 0;
#X connect 24 0 3 1;
#X connect 26 0 23 0;
#X connect 28 0 27 0;
#X connect 29 0 27 0;
#X connect 30 0 29 0;
#X restore 12 469 pd mute;
#X f 8;
#X obj 116 648 *~;
#N canvas 524 110 1046 877 metrobpm 0;
#X obj 136 667 metro 100;
#X msg 171 619 bang;
#X msg 261 617 stop;
#X obj 170 593 r \$0-start;
#X obj 261 592 r \$0-stop;
#X obj 136 691 s \$0-bang;
#X obj 11 56 r \$0-ms;
#X floatatom 11 80 8 0 0 0 - - - 0;
#X obj 11 103 / 16;
#X floatatom 11 126 8 0 0 0 - - - 0;
#X obj 11 28 inlet;
#X obj 186 30 inlet;
#X obj 239 413 outlet;
#X obj 227 45 r \$0-samples;
#X floatatom 227 69 12 0 0 0 - - - 0;
#X obj 227 92 / 16;
#X floatatom 227 118 12 0 0 0 - - - 0;
#X obj 227 141 s \$0-slicelengthsamples;
#X obj 11 150 s \$0-slicelengthms;
#X obj 89 711 bng 15 250 50 0 empty empty empty 17 7 0 10 #fcfcfc #000000 #000000;
#X obj 89 729 r \$0-oneshot;
#X text 7 8 bang;
#X text 142 8 number of slices;
#X floatatom 36 245 5 0 0 0 - \$0-bpmadjust - 0;
#X obj 36 268 expr 1000/($f1/60);
#X floatatom 36 292 5 0 0 0 - - - 0;
#X text 75 292 1 beat in msecs;
#X text 76 245 BPM slider;
#X obj 35 185 tgl 30 0 empty \$0-bpmtoggle empty 17 7 0 10 #fcfcfc #000000 #000000 0 1;
#X obj 305 388 spigot;
#X obj 277 275 == 0;
#X obj 67 475 spigot;
#X obj 309 325 bng 15 250 50 0 \$0-bpmreset empty empty 17 7 0 10 #fcfcfc #000000 #000000;
#X obj 239 362 r \$0-slicelengthms;
#X text 326 324 bpm reset;
#X obj 35 220 t f b;
#X obj 277 299 t f b;
#X obj 322 237 loadbang;
#X msg 322 261 0;
#X floatatom 239 386 5 0 0 0 - - - 0;
#X floatatom 47 394 10 0 0 0 - - - 0;
#X obj 46 350 * 1;
#N canvas 884 762 450 300 beatrecalc 0;
#X obj 107 97 route 1 2 4 8 16 32;
#X msg 98 143 8;
#X msg 139 142 4;
#X msg 176 142 2;
#X msg 215 142 1;
#X msg 255 140 0.5;
#X msg 297 140 0.25;
#X obj 108 197 t f b;
#X obj 105 43 inlet;
#X obj 100 234 outlet;
#X obj 166 231 outlet;
#X connect 0 0 1 0;
#X connect 0 1 2 0;
#X connect 0 2 3 0;
#X connect 0 3 4 0;
#X connect 0 4 5 0;
#X connect 0 5 6 0;
#X connect 1 0 7 0;
#X connect 2 0 7 0;
#X connect 3 0 7 0;
#X connect 4 0 7 0;
#X connect 5 0 7 0;
#X connect 6 0 7 0;
#X connect 7 0 9 0;
#X connect 7 1 10 0;
#X connect 8 0 0 0;
#X restore 186 331 pd beatrecalc;
#X text 73 182 toggle BPM adjust on/off;
#X text 39 584 START/STOP METRO;
#X obj 348 472 r fromGUI;
#X obj 348 496 list trim;
#X floatatom 348 544 5 0 0 0 - - - 0;
#X floatatom 434 546 5 0 0 0 - - - 0;
#X obj 348 520 route /start /stop;
#X connect 0 0 5 0;
#X connect 1 0 0 0;
#X connect 2 0 0 0;
#X connect 3 0 1 0;
#X connect 4 0 2 0;
#X connect 6 0 7 0;
#X connect 7 0 8 0;
#X connect 8 0 9 0;
#X connect 9 0 18 0;
#X connect 10 0 7 0;
#X connect 10 0 14 0;
#X connect 11 0 8 1;
#X connect 11 0 15 1;
#X connect 11 0 42 0;
#X connect 13 0 14 0;
#X connect 14 0 15 0;
#X connect 15 0 16 0;
#X connect 16 0 17 0;
#X connect 19 0 5 0;
#X connect 20 0 19 0;
#X connect 23 0 24 0;
#X connect 24 0 25 0;
#X connect 25 0 41 0;
#X connect 28 0 30 0;
#X connect 28 0 35 0;
#X connect 29 0 12 0;
#X connect 29 0 0 1;
#X connect 30 0 36 0;
#X connect 31 0 0 1;
#X connect 31 0 12 0;
#X connect 33 0 29 0;
#X connect 33 0 39 0;
#X connect 35 0 31 1;
#X connect 35 1 25 0;
#X connect 36 0 29 1;
#X connect 36 1 32 0;
#X connect 37 0 38 0;
#X connect 38 0 29 1;
#X connect 40 0 31 0;
#X connect 41 0 40 0;
#X connect 42 0 41 1;
#X connect 42 1 41 0;
#X connect 45 0 46 0;
#X connect 46 0 49 0;
#X connect 49 0 47 0;
#X connect 49 0 1 0;
#X connect 49 1 48 0;
#X connect 49 1 2 0;
#X restore 125 86 pd metrobpm;
#N canvas 1031 43 686 596 sliderpos 0;
#X obj 82 87 snapshot~;
#X floatatom 82 111 14 0 0 0 - - - 0;
#X obj 82 35 loadbang;
#X obj 82 159 /;
#X obj 100 134 r \$0-samples;
#X floatatom 82 183 12 0 0 0 - - - 0;
#X obj 27 59 inlet~;
#X obj 35 21 bng 15 250 50 0 empty empty empty 17 7 0 10 #fcfcfc #000000 #000000;
#X obj 82 60 metro 1;
#X obj 82 206 s \$0-sliderpos;
#X obj 207 129 s \$0-samplepos;
#X obj 181 297 r fromGUI;
#X obj 181 321 list trim;
#X obj 181 345 route /playbackpos;
#X floatatom 169 403 5 0 0 0 - - - 0;
#X obj 169 379 r \$0-sliderpos;
#X msg 177 478 list /playbackpos \$1;
#X obj 177 502 s toGUI;
#X obj 278 392 r \$0-mmpslidertoggle;
#X obj 252 422 tgl 15 0 empty empty empty 17 7 0 10 #fcfcfc #000000 #000000 0 1;
#X connect 0 0 1 0;
#X connect 1 0 3 0;
#X connect 1 0 10 0;
#X connect 2 0 8 0;
#X connect 3 0 5 0;
#X connect 4 0 3 1;
#X connect 5 0 9 0;
#X connect 6 0 0 0;
#X connect 7 0 8 0;
#X connect 8 0 0 0;
#X connect 11 0 12 0;
#X connect 12 0 13 0;
#X connect 15 0 14 0;
#X connect 16 0 17 0;
#X connect 18 0 19 0;
#X restore 60 417 pd sliderpos;
#X text 150 417 playback slider;
#N canvas 1100 142 538 728 pitchshift 0;
#N canvas 934 49 794 997 pitchfarnell 0;
#X obj 39 232 s chunk-size;
#X obj 147 209 r chunk-size;
#X obj 147 232 t b f;
#X obj 173 334 +~ 0.5;
#X obj 174 361 wrap~;
#X obj 193 504 +~;
#X obj 39 209 * 0.001;
#X obj 253 238 t b f;
#X obj 128 271 expr (pow(2 \, $f1/120)-$f3)/$f2;
#X obj 194 525 hip~ 1;
#X obj 128 297 phasor~;
#X obj 42 173 hsl 64 12 1 100 0 1 empty empty chunk-size 6 6 1 8 #fcfcfc #000000 #000000 573 1;
#X floatatom 47 189 5 0 0 0 - - - 0;
#X obj 256 213 s speed;
#X obj 249 171 hsl 64 12 0 10 0 1 empty empty speed 6 6 1 8 #fcfcfc #000000 #000000 630 1;
#X obj 152 171 hsl 64 12 100 -100 0 1 empty empty pitch 6 6 1 8 #ffc7c6 #000000 #000000 3150 1;
#X floatatom 257 191 5 0 0 0 - - - 0;
#X floatatom 147 188 5 0 0 0 - - - 0;
#X obj 39 40 inlet~;
#X obj 144 472 *~;
#X obj 18 395 -~ 0.5;
#X obj 18 418 *~ 0.5;
#X obj 18 440 cos~;
#X obj 245 470 *~;
#X obj 195 397 -~ 0.5;
#X obj 195 419 *~ 0.5;
#X obj 195 441 cos~;
#X obj 194 571 outlet~;
#X obj 194 547 *~ 1;
#X obj 71 395 *~ 10;
#X obj 258 398 *~ 10;
#X msg 272 145 1;
#X obj 275 337 snapshot~;
#X floatatom 275 360 5 0 0 0 - - - 0;
#X obj 274 295 bng 15 250 50 0 empty empty empty 17 7 0 10 #fcfcfc #000000 #000000;
#X obj 274 314 metro 100;
#X msg 39 148 10;
#X msg 148 121 0;
#X floatatom 61 272 5 0 0 0 - - - 0;
#X obj 147 145 r \$0-pitchamount;
#X obj 25 554 s \$0-pitchreset;
#X obj 69 515 bng 15 250 50 0 empty \$0-pitchresetbang empty 17 7 0 10 #fcfcfc #000000 #000000;
#X floatatom 25 531 5 0 0 0 - - - 0;
#X obj 25 480 loadbang;
#X msg 25 505 0;
#X obj 39 124 loadbang;
#X obj 183 121 loadbang;
#X obj 272 120 loadbang;
#X obj 39 65 delwrite~ pitchshift 200, f 27;
#X obj 71 419 vd~ pitchshift;
#X obj 248 421 vd~ pitchshift;
#X text 15 8 Modified from Andy Farnell \, Designing Sound (2010);
#X text 88 41 incoming audio fed into delay line;
#N canvas 1211 160 418 737 glide 0;
#X obj 198 196 line;
#X obj 199 46 r \$0-slicelengthms;
#X obj 198 222 spigot;
#X floatatom 198 248 5 0 0 0 - - - 0;
#X obj 253 201 tgl 15 0 empty \$0-pitchglidedown empty 17 7 0 10 #fcfcfc #000000 #000000 0 1;
#X obj 253 222 s \$0-togglepitch;
#X obj 198 272 r \$0-pitchamount;
#X obj 253 248 sel 0;
#X obj 253 299 f;
#X msg 198 172 0 \, 100 \$1 10;
#X obj 20 205 line;
#X obj 20 231 spigot;
#X floatatom 20 257 5 0 0 0 - - - 0;
#X obj 75 210 tgl 15 0 empty \$0-pitchglideup empty 17 7 0 10 #fcfcfc #000000 #000000 0 1;
#X obj 75 232 s \$0-togglepitch;
#X obj 20 281 r \$0-pitchamount;
#X obj 75 257 sel 0;
#X obj 75 308 f;
#X obj 135 341 outlet;
#X msg 20 181 0 \, -100 \$1 10;
#X text 272 200 on/off;
#X text 99 209 on/off;
#X floatatom 199 70 5 0 0 0 - - - 0;
#X obj 199 93 * 1;
#X obj 242 69 r \$0-gliderate;
#X obj 274 129 metro;
#X obj 117 372 loadbang;
#X msg 117 396 1;
#X obj 117 420 s \$0-gliderateinit;
#X obj 274 153 bng 15 250 50 0 empty empty empty 17 7 0 10 #fcfcfc #000000 #000000;
#X obj 198 125 f;
#X floatatom 228 149 5 0 0 0 - - - 0;
#X obj 23 45 r \$0-slicelengthms;
#X floatatom 23 69 5 0 0 0 - - - 0;
#X obj 23 92 * 1;
#X obj 66 68 r \$0-gliderate;
#X obj 68 128 metro;
#X obj 68 152 bng 15 250 50 0 empty empty empty 17 7 0 10 #fcfcfc #000000 #000000;
#X obj 22 124 f;
#X floatatom 22 148 5 0 0 0 - - - 0;
#X text 66 98 Glide UP;
#X text 242 99 Glide DOWN;
#X connect 0 0 2 0;
#X connect 1 0 22 0;
#X connect 2 0 3 0;
#X connect 3 0 18 0;
#X connect 4 0 2 1;
#X connect 4 0 5 0;
#X connect 4 0 7 0;
#X connect 4 0 25 0;
#X connect 6 0 8 1;
#X connect 7 0 8 0;
#X connect 8 0 18 0;
#X connect 9 0 0 0;
#X connect 10 0 11 0;
#X connect 11 0 12 0;
#X connect 12 0 18 0;
#X connect 13 0 11 1;
#X connect 13 0 14 0;
#X connect 13 0 16 0;
#X connect 13 0 36 0;
#X connect 15 0 17 1;
#X connect 16 0 17 0;
#X connect 17 0 18 0;
#X connect 19 0 10 0;
#X connect 22 0 23 1;
#X connect 23 0 25 1;
#X connect 23 0 30 1;
#X connect 24 0 23 0;
#X connect 25 0 29 0;
#X connect 25 0 30 0;
#X connect 26 0 27 0;
#X connect 27 0 28 0;
#X connect 30 0 31 0;
#X connect 31 0 9 0;
#X connect 32 0 33 0;
#X connect 33 0 34 1;
#X connect 34 0 36 1;
#X connect 34 0 38 1;
#X connect 35 0 34 0;
#X connect 36 0 37 0;
#X connect 36 0 38 0;
#X connect 38 0 39 0;
#X connect 39 0 19 0;
#X restore 148 94 pd glide;
#X text 209 95 pitch glide up/down;
#X obj 421 58 r fromGUI;
#X obj 421 82 list trim;
#X obj 421 106 route /pitchamount;
#X obj 421 130 expr 100-($f1*200);
#X floatatom 421 154 5 0 0 0 - - - 0;
#X obj 575 90 r fromGUI;
#X obj 575 114 list trim;
#X obj 575 138 route /pitchreset;
#X floatatom 514 163 5 0 0 0 - - - 0;
#X obj 575 202 bng 19 250 50 0 empty empty empty 0 -10 0 12 #fcfcfc #000000 #000000;
#X obj 576 291 s toGUI;
#X msg 576 267 list /pitchamount 0.5;
#X obj 638 223 loadbang;
#X connect 1 0 2 0;
#X connect 2 0 8 0;
#X connect 2 1 8 1;
#X connect 3 0 4 0;
#X connect 4 0 24 0;
#X connect 4 0 30 0;
#X connect 5 0 9 0;
#X connect 6 0 0 0;
#X connect 7 0 8 0;
#X connect 7 1 8 2;
#X connect 8 0 10 0;
#X connect 8 0 38 0;
#X connect 9 0 28 0;
#X connect 10 0 3 0;
#X connect 10 0 20 0;
#X connect 10 0 29 0;
#X connect 10 0 32 0;
#X connect 11 0 12 0;
#X connect 11 0 6 0;
#X connect 14 0 13 0;
#X connect 14 0 7 0;
#X connect 14 0 16 0;
#X connect 15 0 8 0;
#X connect 15 0 17 0;
#X connect 18 0 48 0;
#X connect 19 0 5 0;
#X connect 20 0 21 0;
#X connect 21 0 22 0;
#X connect 22 0 19 0;
#X connect 23 0 5 0;
#X connect 24 0 25 0;
#X connect 25 0 26 0;
#X connect 26 0 23 0;
#X connect 28 0 27 0;
#X connect 29 0 49 0;
#X connect 30 0 50 0;
#X connect 31 0 14 0;
#X connect 32 0 33 0;
#X connect 34 0 35 0;
#X connect 35 0 32 0;
#X connect 36 0 11 0;
#X connect 37 0 15 0;
#X connect 39 0 15 0;
#X connect 41 0 42 0;
#X connect 42 0 40 0;
#X connect 43 0 44 0;
#X connect 44 0 42 0;
#X connect 45 0 36 0;
#X connect 46 0 37 0;
#X connect 47 0 31 0;
#X connect 49 0 19 1;
#X connect 50 0 23 1;
#X connect 53 0 15 0;
#X connect 55 0 56 0;
#X connect 56 0 57 0;
#X connect 57 0 58 0;
#X connect 58 0 59 0;
#X connect 59 0 15 0;
#X connect 60 0 61 0;
#X connect 61 0 62 0;
#X connect 62 0 63 0;
#X connect 62 0 64 0;
#X connect 63 0 15 0;
#X connect 64 0 66 0;
#X connect 66 0 65 0;
#X connect 67 0 66 0;
#X restore 37 335 pd pitchfarnell;
#X obj 24 175 tgl 30 0 empty empty empty 17 7 0 10 #ffffff #9c00ff #000000 0 1;
#X obj 95 145 == 0;
#X obj 98 176 tgl 30 0 empty empty empty 17 7 0 10 #fcfcfc #00ff04 #000000 0 1;
#X obj 54 215 t f;
#X floatatom 54 239 5 0 0 0 - - - 0;
#X obj 37 398 *~;
#X obj 105 398 *~;
#X obj 54 286 line~;
#X obj 124 286 line~;
#X floatatom 128 240 5 0 0 0 - - - 0;
#X obj 128 216 t f;
#X obj 105 33 r \$0-pitchprob;
#X obj 25 33 r \$0-bang;
#X floatatom 25 82 5 0 0 0 - - - 0;
#X obj 25 108 <;
#X obj 25 58 random 100;
#X obj 105 57 i;
#X floatatom 105 81 5 0 0 0 - - - 0;
#X floatatom 25 132 5 0 0 0 - - - 0;
#X msg 54 262 0 \, \$1 1;
#X msg 124 262 0 \, \$1 1;
#X obj 37 310 inlet~ pitchshifted;
#X obj 105 369 inlet~ normal;
#X obj 54 432 outlet~;
#X obj 148 100 sel 0 1;
#X obj 148 124 bng 15 250 50 0 empty empty empty 17 7 0 10 #fcfcfc #000000 #000000;
#X obj 171 124 bng 15 250 50 0 empty empty empty 17 7 0 10 #fcfcfc #000000 #000000;
#X obj 147 144 s \$0-pitchflash;
#X text 41 8 PITCH SHIFT TOGGLE;
#X obj 334 27 r fromGUI;
#X obj 334 51 list trim;
#X obj 334 75 route /pitchprob;
#X obj 334 99 * 100;
#X obj 334 123 i;
#X floatatom 334 147 5 0 0 0 - - - 0;
#X obj 226 412 s toGUI;
#X msg 226 335 list /pitchbang 0 0 1;
#X msg 259 383 list /pitchbang 0 0 0;
#X obj 225 313 bng 15 250 50 0 empty empty empty 17 7 0 10 #fcfcfc #000000 #000000;
#X obj 260 360 delay 100;
#X connect 0 0 6 0;
#X connect 1 0 2 0;
#X connect 1 0 4 0;
#X connect 2 0 3 0;
#X connect 3 0 11 0;
#X connect 4 0 5 0;
#X connect 5 0 20 0;
#X connect 6 0 24 0;
#X connect 7 0 24 0;
#X connect 8 0 6 1;
#X connect 9 0 7 1;
#X connect 10 0 21 0;
#X connect 11 0 10 0;
#X connect 12 0 17 0;
#X connect 13 0 16 0;
#X connect 14 0 15 0;
#X connect 15 0 19 0;
#X connect 16 0 14 0;
#X connect 17 0 18 0;
#X connect 18 0 15 1;
#X connect 19 0 1 0;
#X connect 19 0 25 0;
#X connect 20 0 8 0;
#X connect 21 0 9 0;
#X connect 22 0 0 0;
#X connect 23 0 7 0;
#X connect 25 0 26 0;
#X connect 25 1 27 0;
#X connect 27 0 28 0;
#X connect 27 0 39 0;
#X connect 30 0 31 0;
#X connect 31 0 32 0;
#X connect 32 0 33 0;
#X connect 33 0 34 0;
#X connect 34 0 35 0;
#X connect 35 0 15 1;
#X connect 37 0 36 0;
#X connect 38 0 36 0;
#X connect 39 0 37 0;
#X connect 39 0 40 0;
#X connect 40 0 38 0;
#X restore 12 495 pd pitchshift;
#X f 14;
#N canvas 1109 139 507 773 envelope 0;
#X msg 29 93 0 \, 1 \$1 0;
#X obj 29 116 vline~;
#X obj 46 18 inlet;
#X obj 28 188 outlet~;
#X obj 21 43 r \$0-bang;
#X floatatom 93 37 5 0 0 0 - - - 0;
#X obj 29 68 f;
#N canvas 150 188 588 651 sliceenv001 0;
#X obj 59 255 t b b;
#X obj 59 339 f;
#X obj 105 339 + 1;
#X msg 120 296 0;
#X obj 59 308 until;
#X obj 59 365 t f f;
#X msg 60 283 2048;
#X obj 60 423 expr ($f1-1024)/1024, f 21;
#N canvas 0 22 450 278 (subpatch) 0;
#X array sliceenv 2048 float 0;
#X coords 0 1 2047 0 200 140 1 0 0;
#X restore 293 108 graph;
#X obj 59 228 loadbang;
#X obj 141 240 bng 15 250 50 0 empty empty empty 17 7 0 10 #fcfcfc #000000 #000000;
#X floatatom 138 498 15 0 0 0 - - - 0;
#X floatatom 74 449 9 0 0 0 - - - 0;
#X floatatom 68 394 5 0 0 0 - - - 0;
#X floatatom 247 395 5 0 0 0 - - - 0;
#X text 258 59 Farnell (2010) Chapter 21 "Grains";
#X text 60 206 LOAD SLICE ENVELOPE;
#X obj 60 572 tabwrite sliceenv, f 27;
#N canvas 0 22 450 278 (subpatch) 0;
#X array slice_no_env 33075 float 2;
#X coords 0 1 33075 -1 200 140 1;
#X restore 294 268 graph;
#N canvas 0 22 450 278 (subpatch) 0;
#X array slice_with_env 33075 float 2;
#X coords 0 1 33075 -1 200 140 1 0 0;
#X restore 294 428 graph;
#X obj 60 471 expr 0.5+(cos($f1 * 3.141)/2);
#X connect 0 0 6 0;
#X connect 0 1 3 0;
#X connect 1 0 2 0;
#X connect 1 0 5 0;
#X connect 2 0 1 1;
#X connect 3 0 1 1;
#X connect 4 0 1 0;
#X connect 5 0 7 0;
#X connect 5 0 13 0;
#X connect 5 1 14 0;
#X connect 6 0 4 0;
#X connect 7 0 12 0;
#X connect 7 0 20 0;
#X connect 9 0 0 0;
#X connect 10 0 0 0;
#X connect 14 0 17 1;
#X connect 20 0 11 0;
#X connect 20 0 17 0;
#X restore 252 50 pd sliceenv001;
#X text 253 20 old envelopes;
#X obj 86 405 vline~;
#X obj 182 405 vline~;
#X obj 86 453 snapshot~;
#X floatatom 86 477 5 0 0 0 - - - 0;
#X obj 28 140 *~ 8820;
#X obj 86 429 pow~ 0.02;
#X obj 182 429 pow~ 0.02;
#X obj 25 254 bng 15 250 50 0 empty empty empty 17 7 0 10 #fcfcfc #000000 #000000;
#X msg 66 379 1 100 \, 0 0 100;
#X msg 202 379 1 0 100 \, 0 100 100;
#X obj 156 272 t f b;
#X obj 25 304 t b b b;
#X obj 140 106 loadbang;
#X msg 140 130 0.02;
#X obj 140 154 s initsliceenv;
#X obj 119 61 r \$0-stutterbang;
#X obj 28 163 tabread4~ env;
#X obj 76 522 tabwrite~ env;
#X obj 288 101 r fromGUI;
#X obj 288 125 list trim;
#X floatatom 288 173 5 0 0 0 - - - 0;
#X obj 288 149 route /sliceenv;
#X obj 288 196 * 0.5;
#X floatatom 288 220 5 0 0 0 - - - 0;
#X obj 313 478 loadbang;
#X msg 313 528 list /sliceenv 0.02;
#X obj 313 552 s toGUI;
#X obj 313 502 delay 100;
#X connect 0 0 1 0;
#X connect 1 0 13 0;
#X connect 2 0 5 0;
#X connect 2 0 6 1;
#X connect 4 0 6 0;
#X connect 6 0 0 0;
#X connect 9 0 14 0;
#X connect 10 0 15 0;
#X connect 11 0 12 0;
#X connect 13 0 25 0;
#X connect 14 0 11 0;
#X connect 14 0 26 0;
#X connect 15 0 26 0;
#X connect 16 0 20 0;
#X connect 17 0 9 0;
#X connect 18 0 10 0;
#X connect 19 0 14 1;
#X connect 19 0 15 1;
#X connect 19 1 20 0;
#X connect 20 0 26 0;
#X connect 20 1 17 0;
#X connect 20 2 18 0;
#X connect 21 0 22 0;
#X connect 22 0 23 0;
#X connect 24 0 6 0;
#X connect 25 0 3 0;
#X connect 27 0 28 0;
#X connect 28 0 30 0;
#X connect 29 0 31 0;
#X connect 30 0 29 0;
#X connect 31 0 32 0;
#X connect 32 0 19 0;
#X connect 33 0 36 0;
#X connect 34 0 35 0;
#X connect 36 0 34 0;
#X restore 524 506 pd envelope;
#X text 208 88 metronome & bpm adjust;
#N canvas 121 159 264 133 bang 0;
#X obj 24 30 r \$0-bang;
#X obj 106 54 bng 15 250 50 0 empty empty empty 17 7 0 10 #fcfcfc #000000 #000000;
#X obj 24 54 bng 15 250 50 0 empty empty empty 17 7 0 10 #fcfcfc #000000 #000000;
#X obj 106 30 r \$0-stutterbang;
#X obj 24 74 outlet;
#X connect 0 0 2 0;
#X connect 1 0 4 0;
#X connect 2 0 4 0;
#X connect 3 0 1 0;
#X restore 12 346 pd bang;
#N canvas 1232 140 428 630 sourcedefine 0;
#X obj 30 395 tabread4~ \$0-sample;
#X obj 120 465 tabread4~ samplescroll;
#X obj 30 369 inlet~ sampleload;
#X obj 120 439 inlet~ samplescroll;
#X obj 30 419 *~;
#X obj 120 489 *~;
#X obj 94 223 tgl 30 0 empty empty empty 17 7 0 10 #ffffff #9c00ff #000000 0 1;
#X obj 145 193 == 0;
#X obj 148 224 tgl 30 0 empty empty empty 17 7 0 10 #fcfcfc #00ff04 #000000 0 1;
#X obj 48 263 t f;
#X floatatom 48 287 5 0 0 0 - - - 0;
#X obj 48 334 line~;
#X obj 177 404 line~;
#X floatatom 181 358 5 0 0 0 - - - 0;
#X obj 181 334 t f;
#X floatatom 95 193 5 0 0 0 - - - 0;
#X msg 48 310 0 \, \$1 1;
#X msg 177 380 0 \, \$1 1;
#X obj 112 564 outlet~;
#X obj 95 105 r \$0-sourcedefineload;
#X obj 145 138 r \$0-sourcedefinescroll;
#X msg 95 137 1;
#X msg 145 164 0;
#X text 16 28 Toggles between sample loaded into array by user and selection of 20 breakbeat loops stored in local directory.;
#X connect 0 0 4 0;
#X connect 1 0 5 0;
#X connect 2 0 0 0;
#X connect 3 0 1 0;
#X connect 4 0 18 0;
#X connect 5 0 18 0;
#X connect 6 0 7 0;
#X connect 6 0 9 0;
#X connect 7 0 8 0;
#X connect 8 0 14 0;
#X connect 9 0 10 0;
#X connect 10 0 16 0;
#X connect 11 0 4 1;
#X connect 12 0 5 1;
#X connect 13 0 17 0;
#X connect 14 0 13 0;
#X connect 15 0 6 0;
#X connect 16 0 11 0;
#X connect 17 0 12 0;
#X connect 19 0 21 0;
#X connect 20 0 22 0;
#X connect 21 0 15 0;
#X connect 22 0 15 0;
#X restore 12 443 pd sourcedefine;
#X text 124 443 toggles built in loop or user selected;
#X text 76 470 randomises mute slice;
#X text 116 496 randomises pitch-shift and glide;
#X text 223 298 slice stutter/repeat;
#N canvas 1197 235 488 722 stutter 0;
#X floatatom 152 155 5 2 8 2 repeater \$0-numrepeats - 0;
#X obj 102 116 r \$0-slicelengthms;
#X floatatom 102 140 5 0 0 0 - - - 0;
#X obj 102 173 /;
#X obj 22 9 r \$0-bang;
#X floatatom 102 210 5 0 0 0 - - - 0;
#X obj 254 32 inlet;
#X obj 298 32 inlet;
#X obj 102 27 r \$0-beatrepeat;
#X obj 102 51 i;
#X floatatom 102 75 5 0 0 0 - - - 0;
#X obj 22 93 <;
#X obj 22 35 random 100;
#X floatatom 22 59 5 0 0 0 - - - 0;
#X floatatom 22 117 5 0 0 0 - - - 0;
#X obj 22 141 sel 0 1;
#X obj 30 172 bng 15 250 50 0 empty empty empty 17 7 0 10 #fcfcfc #000000 #000000;
#X obj 81 169 bng 15 250 50 0 empty empty empty 17 7 0 10 #fcfcfc #000000 #000000;
#X obj 254 155 outlet;
#X obj 305 155 outlet;
#X obj 254 130 unpack f f f;
#X obj 358 155 outlet;
#X obj 342 32 inlet;
#X obj 254 57 pack f f f;
#X obj 254 81 list store;
#X msg 23 202 0;
#X msg 62 199 1;
#X obj 23 227 metro 500;
#X obj 23 253 bng 30 50 50 0 empty empty empty 17 7 0 10 #fc0400 #fcfcfc #000000;
#X obj 332 57 r \$0-bang;
#X text 254 15 start;
#X text 305 15 end;
#X text 337 16 length ms;
#X obj 292 212 loadbang;
#X msg 292 236 2;
#X obj 292 260 s \$0-stutterinit;
#X obj 23 290 s \$0-stutterbang;
#X obj 103 372 r fromGUI;
#X obj 103 396 list trim;
#X obj 103 444 * 100;
#X obj 103 468 i;
#X floatatom 103 492 5 0 0 0 - - - 0;
#X obj 103 420 route /stutterprob;
#X obj 259 370 r fromGUI;
#X obj 259 394 list trim;
#X floatatom 259 446 5 0 0 0 - - - 0;
#X obj 259 418 route /numrepeats;
#X obj 45 601 s toGUI;
#X obj 79 549 delay 50;
#X msg 45 524 list /stutterbang 0 0 1;
#X msg 78 572 list /stutterbang 0 0 0;
#X obj 259 469 + 2;
#X floatatom 259 493 5 0 0 0 - - - 0;
#X connect 0 0 3 1;
#X connect 1 0 2 0;
#X connect 2 0 3 0;
#X connect 3 0 5 0;
#X connect 4 0 12 0;
#X connect 5 0 27 1;
#X connect 6 0 23 0;
#X connect 7 0 23 1;
#X connect 8 0 9 0;
#X connect 9 0 10 0;
#X connect 10 0 11 1;
#X connect 11 0 14 0;
#X connect 12 0 13 0;
#X connect 13 0 11 0;
#X connect 14 0 15 0;
#X connect 15 0 16 0;
#X connect 15 0 25 0;
#X connect 15 1 17 0;
#X connect 15 1 26 0;
#X connect 16 0 25 0;
#X connect 17 0 26 0;
#X connect 20 0 18 0;
#X connect 20 1 19 0;
#X connect 20 2 21 0;
#X connect 22 0 23 2;
#X connect 23 0 24 1;
#X connect 24 0 20 0;
#X connect 25 0 27 0;
#X connect 26 0 27 0;
#X connect 27 0 28 0;
#X connect 28 0 36 0;
#X connect 28 0 49 0;
#X connect 28 0 48 0;
#X connect 29 0 24 0;
#X connect 33 0 34 0;
#X connect 34 0 35 0;
#X connect 37 0 38 0;
#X connect 38 0 42 0;
#X connect 39 0 40 0;
#X connect 40 0 41 0;
#X connect 40 0 11 1;
#X connect 42 0 39 0;
#X connect 43 0 44 0;
#X connect 44 0 46 0;
#X connect 45 0 51 0;
#X connect 46 0 45 0;
#X connect 48 0 50 0;
#X connect 49 0 47 0;
#X connect 50 0 47 0;
#X connect 51 0 52 0;
#X connect 52 0 3 1;
#X restore 12 296 pd stutter;
#X f 29;
#X connect 0 0 1 0;
#X connect 1 0 3 0;
#X connect 1 1 21 0;
#X connect 1 2 28 0;
#X connect 1 3 12 1;
#X connect 1 4 21 1;
#X connect 1 4 21 2;
#X connect 1 5 28 1;
#X connect 2 0 3 0;
#X connect 3 0 12 0;
#X connect 4 0 0 0;
#X connect 5 0 17 0;
#X connect 7 0 6 0;
#X connect 7 0 19 0;
#X connect 8 0 9 0;
#X connect 9 0 10 0;
#X connect 10 0 29 0;
#X connect 10 0 35 0;
#X connect 10 0 35 1;
#X connect 12 0 16 0;
#X connect 13 0 8 2;
#X connect 13 0 32 0;
#X connect 14 0 8 0;
#X connect 15 0 8 1;
#X connect 16 0 5 0;
#X connect 16 1 7 1;
#X connect 17 0 18 0;
#X connect 17 1 7 0;
#X connect 18 0 20 0;
#X connect 18 1 20 1;
#X connect 18 2 20 2;
#X connect 19 0 20 3;
#X connect 19 1 20 4;
#X connect 20 0 40 0;
#X connect 20 1 40 1;
#X connect 21 0 5 1;
#X connect 22 0 0 0;
#X connect 26 0 31 0;
#X connect 26 1 31 1;
#X connect 27 0 11 0;
#X connect 28 0 40 2;
#X connect 31 0 27 0;
#X connect 32 0 27 1;
#X connect 34 0 8 0;
#X connect 35 0 26 0;
#X connect 40 0 14 0;
#X connect 40 1 15 0;
#X connect 40 2 13 0;
#X restore 450 112 pd guts;
#X obj 247 314 bng 30 250 50 0 \$0-pitchresetbang empty reset 3 14 0 8 #ffffff #c6ffc7 #000000;
#X obj 31 390 hsl 200 30 0 100 0 0 \$0-reverseprob empty reverse\ probability -2 -8 0 10 #ffffff #000000 #000000 0 1;
#X obj 31 438 hsl 200 30 0 100 0 0 \$0-skipprob empty skip\ probability -2 -8 0 10 #ffffff #000000 #000000 0 1;
#X obj 31 484 hsl 200 30 0 100 0 0 \$0-muteprob empty mute\ probability -2 -8 0 10 #ffffff #000000 #000000 0 1;
#N canvas 373 261 1010 667 loadarray 0;
#X obj 8 60 openpanel;
#X obj 8 138 soundfiler;
#X floatatom 8 165 12 0 0 0 - - - 0;
#X obj 8 34 r \$0-load;
#X obj 8 86 pack s f;
#X obj 81 59 loadbang;
#X obj 81 83 f \$0;
#X msg 8 112 read -resize \$1 \$2-sample;
#X obj 81 35 table \$0-sample;
#X obj 53 187 s \$0-samples;
#X obj 96 150 bng 15 250 50 0 empty empty empty 17 7 0 10 #fcfcfc #000000 #000000;
#N canvas 232 269 250 251 sample2ms 0;
#X obj 45 25 inlet;
#X obj 61 86 samplerate~;
#X obj 45 115 /;
#X obj 45 59 t f b;
#X obj 45 140 * 1000;
#X obj 45 175 outlet;
#X obj 82 111 s \$0-samplerate;
#X connect 0 0 3 0;
#X connect 1 0 2 1;
#X connect 1 0 6 0;
#X connect 2 0 4 0;
#X connect 3 0 2 0;
#X connect 3 1 1 0;
#X connect 4 0 5 0;
#X restore 146 139 pd sample2ms;
#X floatatom 146 163 5 0 0 0 - - - 0;
#X obj 146 186 s \$0-ms;
#X obj 196 166 bng 15 250 50 0 empty empty empty 17 7 0 10 #fcfcfc #000000 #000000;
#X text 9 7 LOADING FILE / SAMPLES / MS;
#X floatatom 41 306 12 0 0 0 - - - 0;
#X obj 41 329 expr (60*44100)/$f1;
#X floatatom 41 353 5 0 0 0 - - - 0;
#X text 131 307 1 beat in samps;
#X text 83 354 BPM calculation;
#X obj 41 282 / 8;
#X obj 41 379 s \$0-bpmcalc;
#X obj 10 333 bng 15 250 50 0 empty \$0-bpmreset empty 17 7 0 10 #fcfcfc #000000 #000000;
#X obj 42 257 r \$0-samples;
#X obj 8 188 t b b;
#X obj 8 214 s \$0-bangbang;
#X obj 232 20 r \$0-samplescroll;
#X obj 266 43 table samplescroll;
#X obj 717 111 bng 15 250 50 0 \$0-sourcedefinescroll empty empty 17 7 0 10 #fcfcfc #000000 #000000;
#X obj 163 78 bng 15 250 50 0 \$0-sourcedefineload empty empty 17 7 0 10 #fcfcfc #000000 #000000;
#X text 246 171 Cold \, Mr. (2009) Random beat slicer \, PURE DATA forum~. Available at: http://forum.pdpatchrepo.info/topic/2796/random-beat-slicer (Accessed: 25 October 2022).;
#X text 245 146 Adapted from:;
#X text 247 242 Skouborg \, J. (2021) Granular21 \, GitHub. Available at: https://github.com/jaffasplaffa/Pure-data-patches (Accessed: 27 October 2022).;
#X obj 404 14 r fromGUI;
#X obj 404 38 list trim;
#X obj 404 62 route /samplescroll;
#X obj 404 86 + 1;
#X msg 244 114 read -resize breakbeat\$1.wav samplescroll, f 42;
#X obj 275 496 s toGUI;
#X obj 275 384 loadbang;
#X msg 275 412 list /selectsample breakbeat1 breakbeat2 breakbeat3 breakbeat4 breakbeat5 breakbeat6 breakbeat7 breakbeat8 breakbeat9 breakbeat10 breakbeat11 breakbeat12 breakbeat13 breakbeat14 breakbeat15 breakbeat16 breakbeat17 breakbeat18 breakbeat19 breakbeat20;
#X obj 662 11 r fromGUI;
#X obj 662 35 list trim;
#X obj 662 59 route /selectsample;
#X floatatom 662 107 5 0 0 0 - - - 0;
#X obj 662 130 + 1;
#X connect 0 0 4 0;
#X connect 0 0 30 0;
#X connect 1 0 2 0;
#X connect 1 0 11 0;
#X connect 2 0 9 0;
#X connect 2 0 25 0;
#X connect 3 0 0 0;
#X connect 4 0 7 0;
#X connect 5 0 6 0;
#X connect 6 0 4 1;
#X connect 7 0 1 0;
#X connect 10 0 2 0;
#X connect 11 0 12 0;
#X connect 12 0 13 0;
#X connect 14 0 12 0;
#X connect 16 0 17 0;
#X connect 17 0 18 0;
#X connect 18 0 22 0;
#X connect 21 0 16 0;
#X connect 23 0 18 0;
#X connect 24 0 21 0;
#X connect 25 0 26 0;
#X connect 25 1 26 0;
#X connect 34 0 35 0;
#X connect 35 0 36 0;
#X connect 36 0 37 0;
#X connect 38 0 1 0;
#X connect 40 0 41 0;
#X connect 41 0 39 0;
#X connect 42 0 43 0;
#X connect 43 0 44 0;
#X connect 44 0 45 0;
#X connect 44 0 29 0;
#X connect 45 0 46 0;
#X connect 46 0 38 0;
#X restore 510 112 pd loadarray;
#X obj 552 36 bng 23 50 50 0 empty \$0-bang empty 17 7 0 10 #fcfcfc #000000 #000000;
#X obj 31 220 hsl 200 30 0.01 0.5 0 0 \$0-env initsliceenv slice\ env\ (click\ don't\ drag) -2 -8 0 10 #fcfcfc #000000 #000000 0 0;
#X obj 31 530 hsl 200 30 0 100 0 0 \$0-beatrepeat empty stutter\ probability -2 -8 0 10 #ffffff #000000 #000000 0 1;
#X floatatom 28 567 5 2 8 1 x\ stutter \$0-stutterinit \$0-numrepeats 12;
#X obj 247 530 bng 30 50 50 0 empty \$0-stutterbang stutter 5 15 0 5 #fcfcfc #c6feff #000000;
#X obj 247 109 bng 30 50 50 0 \$0-oneshot empty one 6 14 0 10 #fcfcfc #9c00fc #000000;
#X obj 247 484 bng 30 250 50 0 empty \$0-muteflash mute 5 14 0 8 #fcfcfc #ffc7c6 #000000;
#X obj 31 168 hsl 200 30 0 100 0 0 \$0-volume \$0-mastervolinit master\ volume -2 -8 0 10 #fcfcfc #000000 #000000 0 1;
#X obj 450 161 *~;
#N canvas 1137 148 394 523 volumecontrol 0;
#X obj 35 16 loadbang;
#X obj 35 64 s \$0-mastervolinit;
#X floatatom 116 113 5 0 0 0 - - - 0;
#X obj 78 89 r \$0-volume;
#X obj 33 88 tgl 15 0 empty \$0-mutevol empty 17 7 0 10 #fcfcfc #000000 #000000 0 1;
#X obj 34 108 == 0;
#X obj 75 207 *;
#X obj 75 231 sig~;
#X obj 78 135 dbtorms;
#X obj 78 159 t b f;
#X msg 35 40 60;
#X obj 75 279 outlet~;
#X obj 143 173 loadbang;
#X obj 143 221 s mastermute;
#X obj 75 255 lop~ 1;
#X msg 143 197 0;
#X obj 205 35 r fromGUI;
#X obj 205 59 list trim;
#X floatatom 205 107 5 0 0 0 - - - 0;
#X floatatom 291 109 5 0 0 0 - - - 0;
#X obj 205 130 * 100;
#X obj 205 83 route /volume /mute;
#X connect 0 0 10 0;
#X connect 3 0 2 0;
#X connect 3 0 8 0;
#X connect 4 0 5 0;
#X connect 5 0 6 0;
#X connect 6 0 7 0;
#X connect 7 0 14 0;
#X connect 8 0 9 0;
#X connect 9 0 6 0;
#X connect 9 1 6 1;
#X connect 10 0 1 0;
#X connect 12 0 15 0;
#X connect 14 0 11 0;
#X connect 15 0 13 0;
#X connect 16 0 17 0;
#X connect 17 0 21 0;
#X connect 18 0 20 0;
#X connect 19 0 5 0;
#X connect 20 0 8 0;
#X connect 21 0 18 0;
#X connect 21 1 19 0;
#X restore 468 136 pd volumecontrol;
#X f 18;
#X obj 247 168 tgl 30 0 \$0-mutevol mastermute mute 3 14 0 10 #fcfcfc #ff0400 #000000 0 1;
#X floatatom 73 109 4 1 1000 0 BPM \$0-bpmcalc \$0-bpmadjust 24;
#X obj 140 109 tgl 30 0 \$0-bpmtoggle \$0-bangbang empty 17 7 0 10 #fcfcfc #000000 #000000 0 1;
#X obj 31 73 hsl 542 10 0 1 0 0 empty \$0-sliderpos playback -2 -8 0 10 #ffffff #000000 #000000 0 1;
#X obj 247 267 bng 30 250 50 0 empty \$0-pitchflash pitch 3 14 0 8 #fcfcfc #c6ffc7 #202020;
#N canvas 793 510 450 278 (subpatch) 0;
#X array env 8820 float 0;
#X coords 0 1 8819 0 30 30 1 0 0;
#X restore 247 220 graph;
#X obj 247 390 bng 30 250 50 0 empty \$0-revbang rev 6 14 0 10 #ffffff #feffc6 #202020;
#X obj 247 438 bng 30 250 50 0 empty \$0-skipbang skip 3 14 0 10 #ffffff #ffe3c6 #202020;
#X obj 28 351 tgl 15 0 \$0-pitchglideup empty glide\ up 17 7 0 10 #fcfcfc #000000 #000000 0 1;
#X obj 98 351 tgl 15 0 \$0-pitchglidedown empty glide\ down 17 7 0 10 #fcfcfc #000000 #000000 0 1;
#X floatatom 181 351 5 1 8 1 glide\ rate \$0-gliderateinit \$0-gliderate 10;
#X obj 79 40 nbx 2 15 1 20 0 0 \$0-samplescroll empty sample -50 7 0 13 #fcfcfc #000000 #000000 0 256;
#X obj 451 214 clip~ -1 1;
#X text 26 6 futurhythmachine v1.0;
#X text 505 50 ?;
#X text 170 106 BPM;
#X text 170 122 adjust;
#X obj 361 260 r fromGUI;
#X obj 361 284 list trim;
#X floatatom 360 333 5 0 0 0 - - - 0;
#X floatatom 447 334 5 0 0 0 - - - 0;
#X floatatom 536 335 5 0 0 0 - - - 0;
#X obj 536 382 s \$0-gliderateinit;
#X obj 361 308 route /glideup /glidedown /gliderate, f 38;
#X obj 536 358 + 1;
#X connect 13 0 27 0;
#X connect 27 0 41 0;
#X connect 28 0 27 1;
#X connect 41 0 3 0;
#X connect 41 0 3 1;
#X connect 46 0 47 0;
#X connect 47 0 52 0;
#X connect 48 0 37 0;
#X connect 49 0 38 0;
#X connect 50 0 53 0;
#X connect 52 0 48 0;
#X connect 52 1 49 0;
#X connect 52 2 50 0;
#X connect 53 0 51 0;
